<svg xmlns="http://www.w3.org/2000/svg" width="192" height="35" viewBox="0 0 192 35" aria-hidden="true" class="icon icon-logo-title"><g><path fill-rule="evenodd" clip-rule="evenodd" d="M42.2814 13.3554C42.2814 22.2471 35.0733 29.4552 26.1816 29.4552C17.2899 29.4552 10.0818 22.2471 10.0818 13.3554C10.0818 12.1143 10.2222 10.906 10.488 9.74555L40.763 6.52088C41.7371 8.59546 42.2814 10.9118 42.2814 13.3554ZM40.3814 5.76111L10.9276 8.19183C12.0675 4.8233 14.2919 1.95473 17.1851 0.00168379C13.7991 1.88474 11.0646 4.79782 9.40503 8.31749L0.798631 9.02774C0.314039 9.06773 -0.0437424 9.49709 0.00433043 9.98095C0.0520799 10.4616 0.482102 10.8113 0.962354 10.7602L8.73533 9.93224C8.02892 11.8939 7.64394 14.009 7.64394 16.214C7.64394 26.4522 15.9437 34.7519 26.1819 34.7519C36.4201 34.7519 44.7198 26.4522 44.7198 16.214C44.7198 12.6094 43.691 9.24503 41.911 6.3986L51.7891 5.34646C51.9393 5.33046 52.0451 5.19132 52.0203 5.04232C51.9979 4.90756 51.8758 4.81252 51.7397 4.82375L41.4341 5.67424C39.8152 3.33595 37.6725 1.38796 35.1756 0C37.3452 1.46399 39.1389 3.44276 40.3814 5.76111Z" fill="#47302B"></path></g><g clip-path="url(#clip0_1029_896)"><path d="M101.868 17.7441C101.655 18.122 101.459 18.4873 101.248 18.8432C100.876 19.469 100.502 20.0942 100.111 20.7081C100.013 20.8614 99.8608 20.9867 99.7128 21.0966C99.3439 21.3699 99.0973 21.3573 98.7303 21.0753C97.7722 20.3395 97.4217 19.1858 97.7689 17.8821C97.8505 17.5761 97.9537 17.2769 98.0648 16.917C97.7203 16.917 97.4138 16.889 97.1185 16.9329C97.0219 16.9469 96.9107 17.1356 96.8765 17.2642C96.5977 18.2933 96.1808 19.2531 95.5021 20.0762C94.9491 20.7467 94.3132 21.2979 93.3787 21.2999C92.6869 21.3013 92.1733 20.9773 91.8656 20.3655C91.2849 19.2111 91.3947 18.0147 91.7775 16.839C91.9215 16.3964 92.1576 15.9625 92.439 15.5926C92.8711 15.0254 93.2906 14.9361 93.9522 15.1967C94.3901 15.3693 94.8064 15.5973 95.2338 15.7972C95.3391 15.8465 95.4495 15.8839 95.5567 15.9265C95.731 15.4999 95.6146 15.1314 95.2601 14.9407C95.0668 14.8368 94.8603 14.7575 94.6709 14.6481C94.5203 14.5608 94.446 14.4362 94.594 14.2702C95.0379 13.7703 96.3715 13.737 96.7523 14.2702C96.9449 14.5402 97.0219 14.9154 97.0817 15.2553C97.133 15.5446 97.0738 15.8525 97.087 16.1511C97.0909 16.2384 97.1534 16.3697 97.2224 16.3991C97.6867 16.597 98.4035 16.3651 98.6771 15.9632C98.9631 15.5433 99.1512 15.0167 99.7601 14.9367C100.472 14.8434 101.133 14.9787 101.742 15.364C101.903 15.466 102.057 15.5793 102.26 15.7186C102.312 15.5399 102.347 15.428 102.377 15.3147C102.802 13.6844 103.222 12.0527 103.651 10.4238C103.786 9.90724 104.055 9.74661 104.579 9.84259C105.554 10.0206 105.706 10.2445 105.469 11.2169C104.901 13.5544 104.311 15.8872 103.762 18.2293C103.606 18.8945 103.539 19.5857 103.482 20.2688C103.461 20.5075 103.518 20.8934 103.668 20.9767C103.945 21.1306 104.17 20.816 104.316 20.6008C104.843 19.8256 105.343 19.0318 105.842 18.238C106.095 17.8361 106.347 17.4302 106.558 17.0049C106.763 16.5917 106.928 16.1571 107.088 15.7232C107.323 15.0867 107.626 14.9207 108.275 15.108C108.349 15.1294 108.422 15.154 108.493 15.1834C109.122 15.4446 109.201 15.6932 109.003 16.3504C108.633 17.5788 108.293 18.8178 107.968 20.0596C107.913 20.2708 107.996 20.5188 108.015 20.7494C108.214 20.6288 108.458 20.5488 108.603 20.3801C109.358 19.503 110.089 18.6039 110.826 17.7108C111.009 17.4895 111.221 17.2849 111.361 17.0383C111.779 16.3018 112.16 15.5426 112.573 14.8028C112.799 14.3982 113.035 13.995 113.313 13.627C113.865 12.8985 114.521 12.7419 115.28 13.1118C115.968 13.4458 116.32 14.1749 116.108 14.9867C115.774 16.2664 115.001 17.2175 113.824 17.7927C113.591 17.9067 113.269 17.9027 113.002 17.8607C112.717 17.8161 112.567 17.8867 112.543 18.1613C112.504 18.5999 112.457 19.0425 112.476 19.4804C112.498 19.9656 112.828 20.2448 113.299 20.1615C114.074 20.0242 114.846 19.8676 115.462 19.2904C116.394 18.4179 117.367 17.5908 118.28 16.6997C118.62 16.3684 118.859 15.9225 119.111 15.5086C119.363 15.0954 119.725 14.9281 120.179 14.9094C120.871 14.8814 121.499 15.0607 122.058 15.4859C122.402 15.7472 122.423 15.7299 122.532 15.3047C122.954 13.6624 123.378 12.0201 123.805 10.3791C123.916 9.95323 124.186 9.75261 124.608 9.8266C125.592 9.99922 125.899 10.1292 125.612 11.2616C125.014 13.6257 124.439 15.9965 123.877 18.3699C123.742 18.9391 123.683 19.5283 123.61 20.1109C123.587 20.3048 123.613 20.5101 123.648 20.7047C123.711 21.0573 123.908 21.1413 124.172 20.8927C124.451 20.6314 124.717 20.3382 124.918 20.0136C125.5 19.0745 126.041 18.11 126.61 17.1616C126.802 16.8396 127.016 16.5297 127.243 16.2311C127.296 16.1611 127.439 16.1611 127.541 16.1291C127.558 16.2351 127.622 16.3664 127.583 16.4431C126.724 18.1287 125.918 19.8476 124.722 21.3279C124.516 21.5819 124.263 21.8098 123.994 21.9924C123.471 22.3477 122.954 22.2637 122.646 21.7058C122.39 21.2413 122.183 20.7134 122.109 20.1909C122.016 19.541 122.081 18.8678 122.078 18.2047C122.078 18.0733 122.078 17.9414 122.017 17.7741C121.89 17.9814 121.758 18.1867 121.636 18.3973C121.226 19.1044 120.856 19.8383 120.402 20.5154C119.726 21.5259 119.203 21.5332 118.405 20.6321C118.028 20.2069 117.843 19.713 117.829 19.1484C117.824 18.9178 117.829 18.6872 117.829 18.4566C117.8 18.4399 117.771 18.4239 117.741 18.4073C117.61 18.5546 117.484 18.7065 117.348 18.8478C116.707 19.513 116.1 20.2189 115.409 20.8247C114.844 21.3193 114.145 21.5892 113.363 21.4132C112.397 21.1953 111.825 20.5568 111.586 19.611C111.497 19.2597 111.487 18.8878 111.443 18.5252C111.43 18.4226 111.423 18.3193 111.405 18.114C111.232 18.3433 111.126 18.4933 111.01 18.6352C110.329 19.4724 109.673 20.3342 108.948 21.13C108.682 21.4212 108.269 21.6172 107.888 21.7478C107.419 21.9071 107.018 21.7225 106.835 21.2566C106.635 20.7501 106.515 20.2055 106.418 19.667C106.358 19.3351 106.407 18.9838 106.407 18.5332C106.284 18.7132 106.209 18.8192 106.138 18.9285C105.64 19.697 105.16 20.4775 104.638 21.228C104.44 21.5126 104.168 21.7585 103.891 21.9684C103.365 22.365 102.849 22.253 102.48 21.7078C102.028 21.04 101.908 20.2742 101.87 19.493C101.843 18.9325 101.865 18.3693 101.865 17.7434L101.868 17.7441ZM118.833 19.5243C118.92 19.7103 118.986 19.9109 119.099 20.0789C119.34 20.4388 119.547 20.4435 119.76 20.0716C120.352 19.0378 120.929 17.9954 121.497 16.9476C121.569 16.8143 121.619 16.5284 121.56 16.4877C121.367 16.3517 121.124 16.2631 120.889 16.2231C120.776 16.2038 120.625 16.3158 120.512 16.3977C119.467 17.1609 118.909 18.19 118.834 19.525L118.833 19.5243ZM98.7534 19.3277C98.7534 19.515 98.7185 19.6283 98.7593 19.6876C98.9171 19.9149 99.0993 20.1249 99.2729 20.3415C99.4175 20.2042 99.605 20.0922 99.7003 19.9263C100.267 18.9391 100.82 17.944 101.361 16.9429C101.569 16.5584 101.307 16.1785 100.858 16.2071C100.693 16.2178 100.514 16.2931 100.376 16.3904C99.3334 17.1236 98.7961 18.1427 98.7534 19.3277ZM93.2124 19.9323C93.2281 19.9349 93.2433 19.9383 93.2591 19.9409C93.2591 20.0076 93.2531 20.0742 93.2597 20.1402C93.2998 20.5248 93.505 20.6241 93.8114 20.3915C93.9489 20.2868 94.0719 20.1535 94.1758 20.0136C94.8117 19.1584 95.1701 18.176 95.4259 17.1502C95.5554 16.6304 95.5469 16.6284 95.0832 16.4064C94.9452 16.3398 94.8097 16.2678 94.6709 16.2025C94.3356 16.0445 94.2501 16.0658 94.1317 16.4124C93.9311 16.9976 93.7312 17.5841 93.5754 18.182C93.4254 18.7579 93.3307 19.3484 93.2124 19.9323ZM114.702 14.1423C114.007 14.7361 113.573 15.414 113.214 16.2084C113.857 16.0931 114.708 14.9254 114.702 14.1423Z" fill="#47302B"></path><path d="M159.159 15.9299C159.314 15.4067 159.205 15.1195 158.802 14.9102C158.636 14.8242 158.461 14.7562 158.3 14.6622C158.061 14.5223 158.05 14.3543 158.28 14.2083C158.766 13.9017 159.303 13.8058 159.859 13.9251C160.324 14.025 160.63 14.4816 160.67 15.0928C160.691 15.4241 160.687 15.7586 160.672 16.0906C160.662 16.3178 160.758 16.4478 160.967 16.4312C161.344 16.4005 161.722 16.3465 162.093 16.2685C162.164 16.2532 162.24 16.0866 162.253 15.9819C162.338 15.3001 162.399 14.6156 162.484 13.9337C162.521 13.6378 162.581 13.3419 162.664 13.0553C162.786 12.6287 163.063 12.4701 163.49 12.5454C163.522 12.5514 163.555 12.5594 163.586 12.5667C164.436 12.7553 164.523 12.966 164.371 13.8191C164.208 14.7422 164.131 15.6827 164.052 16.6191C163.985 17.4023 163.961 18.1901 163.939 18.9766C163.93 19.2738 163.972 19.5738 164.008 19.8697C164.017 19.9463 164.089 20.069 164.141 20.0736C164.219 20.0803 164.338 20.025 164.382 19.9577C164.609 19.6051 164.845 19.2545 165.026 18.8773C165.532 17.8188 166 16.7424 166.507 15.6847C166.75 15.1774 167.001 14.6609 167.336 14.217C167.615 13.8484 168.007 13.5585 168.379 13.2752C168.521 13.1659 168.748 13.1339 168.937 13.1326C169.162 13.1306 169.335 13.2626 169.357 13.5158C169.374 13.7145 169.307 13.8411 169.094 13.7091C168.869 13.5698 168.712 13.6611 168.537 13.8091C167.984 14.2783 167.624 14.8875 167.344 15.54C166.876 16.6278 166.466 17.7415 165.99 18.8253C165.72 19.4405 165.381 20.027 165.041 20.6075C164.916 20.8208 164.717 20.9994 164.523 21.1587C163.854 21.7073 163.179 21.5566 162.799 20.7708C162.427 20.0003 162.289 19.1692 162.248 18.3214C162.227 17.8895 162.237 17.4563 162.239 17.023C162.241 16.8164 162.172 16.7577 161.959 16.7984C161.628 16.8617 161.288 16.921 160.955 16.907C160.63 16.893 160.509 17.0244 160.442 17.3169C160.217 18.3047 159.804 19.2152 159.156 19.983C158.807 20.3969 158.384 20.7801 157.924 21.0574C156.923 21.6613 155.769 21.236 155.361 20.1356C155.206 19.7184 155.155 19.2572 155.093 18.8106C155.055 18.5427 155.085 18.2654 155.013 17.9561C154.868 18.1248 154.722 18.2934 154.577 18.4627C153.745 19.4331 152.958 20.4482 151.931 21.2267C151.23 21.7586 150.516 21.8152 149.982 21.3014C149.699 21.0301 149.448 20.6515 149.35 20.2763C149.183 19.6404 149.148 18.9699 149.061 18.3127C149.046 18.1967 149.049 18.0788 149.039 17.8568C148.877 18.0155 148.774 18.1008 148.69 18.2027C147.928 19.1325 147.203 20.0996 146.235 20.8288C145.652 21.2687 145.005 21.5766 144.248 21.4307C143.151 21.2187 142.447 20.3876 142.313 19.1652C142.176 17.9095 142.36 16.7064 142.968 15.5947C143.344 14.9075 143.716 14.2097 144.174 13.5798C144.697 12.8613 145.392 12.744 146.122 13.1279C146.794 13.4812 147.126 14.2057 146.92 14.9902C146.596 16.2205 145.853 17.133 144.758 17.7502C144.451 17.9235 144.123 17.9915 143.777 17.8682C143.551 17.7875 143.391 17.8708 143.371 18.1021C143.327 18.6047 143.273 19.1132 143.306 19.6144C143.333 20.027 143.731 20.2343 144.208 20.157C145.16 20.003 146.006 19.6311 146.716 18.9486C147.493 18.2007 148.295 17.4789 149.073 16.7318C149.209 16.6004 149.304 16.4112 149.381 16.2325C149.788 15.2761 150.28 14.3803 151.106 13.7211C151.26 13.5978 151.422 13.4805 151.595 13.3879C152.834 12.7247 153.673 13.6005 153.896 14.6036C153.936 14.7835 153.81 15.1221 153.667 15.1941C153.477 15.2894 153.097 15.2914 152.97 15.1621C152.621 14.8022 152.405 15.0575 152.212 15.2688C151.841 15.6733 151.459 16.0839 151.177 16.5511C150.581 17.5422 150.119 18.5967 150.084 19.789C150.08 19.9103 150.085 20.0343 150.107 20.1536C150.19 20.6022 150.495 20.7921 150.927 20.6595C151.584 20.4576 152.123 20.0463 152.595 19.5678C153.523 18.6286 154.418 17.6569 155.319 16.6911C155.436 16.5651 155.503 16.3918 155.597 16.2432C155.744 16.0113 155.88 15.7706 156.046 15.552C156.449 15.0215 156.98 14.9762 157.551 15.2048C157.907 15.3467 158.246 15.532 158.594 15.6927C158.771 15.7746 158.953 15.846 159.155 15.9319L159.159 15.9299ZM156.823 19.8237C156.842 19.8277 156.86 19.8317 156.879 19.835C156.879 19.9343 156.858 20.0397 156.883 20.1323C156.919 20.2616 156.96 20.4476 157.05 20.4862C157.144 20.5269 157.332 20.4562 157.42 20.3716C157.632 20.1676 157.837 19.945 157.995 19.6971C158.489 18.9172 158.803 18.0568 159.024 17.161C159.153 16.6438 159.149 16.6431 158.667 16.4065C158.529 16.3392 158.388 16.2779 158.256 16.2005C157.992 16.0466 157.822 16.1199 157.73 16.4058C157.542 16.995 157.334 17.5789 157.174 18.1754C157.029 18.7173 156.938 19.2738 156.823 19.8237H156.823ZM145.513 14.1317C144.831 14.7402 144.386 15.4101 144.026 16.2165C144.691 16.0679 145.545 14.8808 145.513 14.1317Z" fill="#47302B"></path><path d="M62.1253 7.17534C62.7987 7.19267 63.4188 6.97539 64.0298 6.72278C65.5718 6.08559 67.1166 5.45574 68.7474 5.07983C70.0594 4.77723 71.3897 4.69658 72.7292 4.73657C73.0258 4.74524 73.3244 4.81856 73.494 5.11249C73.6722 5.42108 73.5966 5.69835 73.2468 5.83899C72.628 6.08759 71.9986 6.31088 71.3654 6.51883C69.9916 6.96872 68.6106 7.39662 67.2382 7.85252C67.1297 7.88851 66.9923 8.07713 66.9982 8.18711C67.0633 9.3595 66.5721 10.3933 66.2512 11.473C65.9237 12.5761 65.6613 13.6985 65.3686 14.8122C65.3029 15.0622 65.4199 15.0768 65.6304 15.0728C66.019 15.0655 66.4202 15.0488 66.7937 15.1362C67.2047 15.2328 67.2757 15.4708 67.058 15.8333C66.9061 16.0866 66.724 16.3299 66.5188 16.5412C65.9973 17.079 65.4449 17.5869 64.9274 18.1288C64.784 18.2794 64.6683 18.4954 64.6255 18.7C64.3697 19.9264 64.1369 21.1581 63.9002 22.3885C63.8279 22.7651 63.9186 22.8477 64.2757 22.7284C65.4607 22.3305 66.6293 21.8726 67.8807 21.7253C68.6304 21.6367 69.382 21.5627 70.135 21.5074C70.3073 21.4947 70.5111 21.5467 70.6571 21.6387C70.8702 21.7726 71.0517 21.9632 70.9853 22.2698C70.9234 22.5578 70.7097 22.6471 70.4631 22.7037C68.5258 23.149 66.745 24.0161 64.9353 24.8053C64.0817 25.1778 63.2275 25.5591 62.3476 25.8563C61.9386 25.9943 61.4579 26.0123 61.0245 25.961C60.2577 25.8703 59.8342 25.1638 60.0618 24.424C60.1032 24.2907 60.2985 24.1701 60.4484 24.1134C60.8272 23.9701 61.2218 23.8688 61.6085 23.7475C62.0379 23.6129 62.1266 23.4909 62.172 23.0403C62.3009 21.7726 62.4337 20.5049 62.5686 19.2379C62.6231 18.728 62.5252 18.61 62.005 18.5887C61.5552 18.57 60.8535 17.9782 60.8003 17.5229C60.7878 17.417 60.941 17.231 61.0593 17.1804C61.5322 16.9764 62.0181 16.8024 62.5048 16.6345C62.8546 16.5138 63.0177 16.2812 63.09 15.9133C63.5227 13.7152 63.9752 11.521 64.4197 9.32551C64.5164 8.84895 64.5019 8.84029 64.0436 8.91827C63.309 9.04358 62.5666 9.12156 61.93 8.62701C61.6992 8.44771 61.5078 8.17378 61.3875 7.90251C61.1863 7.44861 61.3928 7.18467 61.8939 7.17468C61.9708 7.17334 62.0471 7.17468 62.124 7.17468L62.1253 7.17534Z" fill="#47302B"></path><path d="M136.293 17.3697C136.23 17.6523 136.18 17.8729 136.132 18.0942C135.977 18.8093 135.854 19.5332 135.66 20.2377C135.331 21.4274 135.521 22.5898 135.756 23.7562C135.788 23.9188 135.836 24.0788 135.875 24.2407C135.969 24.6326 135.848 24.7939 135.447 24.8139C134.764 24.8479 134.182 24.4287 134.134 23.7322C134.072 22.8304 134.054 21.9153 134.132 21.0162C134.492 16.8531 135.485 12.7927 136.129 8.67501C136.134 8.64235 136.142 8.60969 136.149 8.57703C136.209 8.31843 136.15 7.98117 136.505 7.89919C136.91 7.80521 137.298 7.79055 137.608 8.17979C138.041 8.72433 138.221 9.2902 138.039 10C137.669 11.449 137.35 12.912 137.012 14.3697C136.985 14.485 136.974 14.6036 136.938 14.8323C137.141 14.7256 137.283 14.681 137.386 14.5923C138.579 13.5745 139.674 12.4648 140.567 11.1584C141.126 10.3393 141.569 9.46416 141.867 8.51838C142.208 7.4393 141.745 6.56084 141.108 5.76102C140.434 4.91455 139.509 4.88256 138.555 5.07718C136.368 5.52241 134.681 6.68547 133.522 8.64302C132.908 9.68078 132.413 10.7585 132.149 11.9383C132.068 12.3035 132.044 12.6827 131.997 13.056C131.966 13.3026 132.113 13.3973 132.314 13.3433C132.533 13.2853 132.74 13.1773 132.942 13.072C133.215 12.93 133.469 12.7514 133.746 12.6228C133.962 12.5221 134.199 12.5488 134.313 12.7907C134.431 13.0393 134.221 13.146 134.049 13.2466C133.594 13.5126 133.142 13.7845 132.679 14.0358C132.213 14.2884 131.774 14.1844 131.467 13.7432C130.987 13.054 130.793 12.2722 131.028 11.467C131.557 9.65145 132.377 7.98051 133.632 6.5535C134.352 5.73569 135.141 5.00053 136.139 4.54864C137.355 3.99676 138.638 3.84013 139.923 4.18272C140.419 4.31469 140.875 4.67194 141.296 4.9972C141.951 5.50308 142.499 6.12227 142.934 6.84144C143.342 7.51528 143.445 8.20979 143.331 9.00427C143.141 10.3366 142.315 11.2684 141.523 12.2229C140.387 13.5919 139.011 14.6883 137.541 15.6681C137.357 15.7907 137.174 15.888 137.392 16.1486C138.728 17.7476 140.048 19.3599 141.399 20.9462C141.71 21.3114 142.099 21.6173 142.487 21.9026C142.865 22.1805 143.029 22.1186 143.269 21.7207C143.438 21.4401 143.617 21.3861 143.865 21.5407C144.105 21.6907 144.153 21.9159 143.948 22.1606C143.715 22.4385 143.46 22.7031 143.183 22.9337C142.914 23.1577 142.585 23.1816 142.246 23.089C141.523 22.8904 140.953 22.4385 140.438 21.9219C139.528 21.0095 138.662 20.0504 137.741 19.1499C137.258 18.678 136.771 18.2281 136.493 17.5943C136.466 17.5303 136.397 17.4856 136.292 17.3723L136.293 17.3697Z" fill="#47302B"></path><path d="M73.9939 18.4245C74.4365 17.78 74.877 17.1341 75.3222 16.4916C75.8937 15.6671 76.4639 14.8407 77.0478 14.0248C77.1747 13.8482 77.3496 13.7029 77.518 13.5616C77.8606 13.2737 78.2381 13.0731 78.6912 13.285C79.0114 13.435 79.2192 14.0055 79.1489 14.4914C78.993 15.5658 78.8319 16.6402 78.6754 17.7147C78.6445 17.9279 78.6221 18.1432 78.5952 18.3572C78.6247 18.3705 78.6543 18.3838 78.6833 18.3972C78.9575 18.0073 79.2357 17.6193 79.5059 17.2261C80.2004 16.2163 80.8816 15.1966 81.5899 14.1968C81.7655 13.9495 82.0035 13.7349 82.2468 13.5523C82.8959 13.0651 83.5548 13.2737 83.8534 14.0395C84.0132 14.4487 83.9994 14.8573 83.8738 15.2772C83.418 16.7942 82.9649 18.3125 82.5244 19.8342C82.281 20.6746 82.2363 21.5358 82.3448 22.4049C82.3968 22.8215 82.5717 23.1601 82.9235 23.4053C83.0136 23.468 83.0504 23.6086 83.1116 23.7133C82.984 23.7586 82.8262 23.8759 82.7335 23.8366C82.4356 23.7093 82.135 23.5586 81.8832 23.356C80.9934 22.6422 80.6752 21.6531 80.6226 20.5433C80.5811 19.6769 80.7284 18.8444 80.9967 18.0259C81.2006 17.4047 81.3814 16.7762 81.5688 16.1504C81.5958 16.061 81.6017 15.9657 81.6169 15.8737L81.5393 15.8384C81.2341 16.3176 80.9244 16.7949 80.6239 17.2774C79.8518 18.5151 79.0792 19.7522 78.317 20.9966C78.0428 21.4438 77.6462 21.5318 77.1806 21.4565C76.6546 21.3711 76.3731 21.0872 76.3863 20.526C76.402 19.8862 76.4869 19.2463 76.571 18.6104C76.6789 17.7973 76.819 16.9882 76.94 16.177C76.9551 16.0744 76.9419 15.9671 76.8762 15.8338C76.8019 15.9344 76.7203 16.0304 76.6546 16.1364C75.8444 17.4414 75.0368 18.7484 74.2273 20.0541C74.0353 20.364 73.8446 20.676 73.6421 20.9786C73.3271 21.4485 72.9674 21.5804 72.4229 21.4418C71.9237 21.3152 71.6771 21.0539 71.7067 20.5153C71.7508 19.7209 71.8488 18.9284 71.9546 18.1392C72.1112 16.9748 72.2966 15.8144 72.4656 14.6514C72.5386 14.1501 72.6649 14.0175 73.1706 14.0208C73.4862 14.0228 73.8019 14.0728 74.1175 14.1015C74.393 14.1268 74.4871 14.2688 74.4417 14.5501C74.2845 15.5125 74.1386 16.4776 73.9939 17.4421C73.9472 17.7546 73.9163 18.0699 73.8788 18.3838C73.9163 18.3978 73.9531 18.4125 73.9906 18.4265L73.9939 18.4245Z" fill="#47302B"></path><path d="M175.19 17.9247C175.024 18.122 174.864 18.3246 174.691 18.5153C174.062 19.2078 173.468 19.9389 172.783 20.5694C172.392 20.9294 171.879 21.2193 171.371 21.3719C170.158 21.7365 168.904 20.876 168.649 19.5777C168.343 18.016 168.639 16.559 169.428 15.1967C169.737 14.6621 170.034 14.1149 170.398 13.6197C171.071 12.7053 172.161 12.6946 172.897 13.5551C173.281 14.005 173.313 14.5402 173.162 15.0641C172.822 16.2444 172.1 17.1389 171.036 17.7388C170.728 17.9121 170.402 17.9894 170.056 17.8687C169.793 17.7761 169.643 17.8887 169.618 18.1453C169.574 18.5726 169.516 19.0051 169.54 19.431C169.572 20.0016 169.925 20.2548 170.486 20.1495C171.299 19.9969 172.077 19.7623 172.707 19.1631C173.577 18.3373 174.475 17.5428 175.344 16.7143C175.48 16.5844 175.553 16.3571 175.596 16.1618C175.749 15.4693 175.87 14.7695 176.016 14.0749C176.083 13.7544 176.181 13.4324 176.57 13.3744C176.98 13.3131 177.333 13.4318 177.58 13.7843C177.838 14.1543 177.943 14.5608 177.835 15.0127C177.753 15.3507 177.682 15.6912 177.606 16.0312C177.636 16.0438 177.666 16.0558 177.695 16.0685C177.825 15.8579 177.963 15.6519 178.084 15.436C178.557 14.5995 179.135 13.8517 179.889 13.2591C180.495 12.7826 181.182 12.6773 181.908 12.9112C182.258 13.0239 182.514 13.2678 182.619 13.637C182.642 13.721 182.634 13.8577 182.582 13.907C182.534 13.9523 182.385 13.947 182.319 13.903C181.792 13.5497 181.32 13.7164 180.857 14.0363C179.847 14.7335 179.166 15.7132 178.657 16.805C178.162 17.8661 177.758 18.9711 177.308 20.0542C177.185 20.3502 177.065 20.6508 176.903 20.9254C176.705 21.2613 176.402 21.4552 175.995 21.3913C175.578 21.3253 175.157 20.9767 175.148 20.5808C175.13 19.9203 175.194 19.2577 175.23 18.5959C175.241 18.3879 175.271 18.1813 175.292 17.974C175.259 17.9574 175.226 17.9401 175.193 17.9234L175.19 17.9247ZM170.341 16.2198C171.04 15.9592 171.84 14.8161 171.758 14.2256C171.355 14.3642 170.429 15.6526 170.341 16.2198Z" fill="#47302B"></path><path d="M86.4765 16.2319C86.8007 15.7887 87.1091 15.3328 87.4544 14.9069C87.6819 14.6256 87.943 14.3657 88.2198 14.1337C89.2155 13.2979 90.2472 13.7445 90.7247 14.8156C91.0719 15.594 91.0022 16.4018 90.7819 17.1957C90.3814 18.6407 89.6271 19.873 88.5237 20.8755C87.6799 21.642 86.7606 21.634 85.8998 20.8788C85.8202 20.8088 85.7407 20.7375 85.6177 20.6275C85.5066 20.8755 85.4046 21.0801 85.3224 21.292C85.2461 21.49 85.1396 21.556 84.9496 21.4347C84.8759 21.3874 84.7944 21.352 84.7161 21.312C83.7593 20.8242 83.7527 20.8235 83.8888 19.7584C84.3044 16.5185 84.9805 13.3326 85.8452 10.1866C85.9978 9.63075 86.1398 9.07222 86.2924 8.51634C86.4311 8.01046 86.8007 7.81717 87.436 7.90782C87.8792 7.97114 88.0811 8.22775 88.039 8.76895C88.0127 9.10821 87.916 9.4428 87.8397 9.77672C87.3728 11.8069 86.902 13.8364 86.4351 15.8673C86.4088 15.9806 86.4101 16.0999 86.3989 16.2159C86.4252 16.2212 86.4509 16.2259 86.4772 16.2312L86.4765 16.2319ZM89.3194 15.4147C89.3095 15.2808 89.3082 15.2028 89.2977 15.1261C89.2871 15.0495 89.272 14.9728 89.251 14.8989C89.174 14.6329 89.0603 14.5923 88.8603 14.7796C88.717 14.9135 88.5868 15.0668 88.4743 15.2288C87.5142 16.6105 86.7718 18.1161 86.0425 19.6291C85.9393 19.8424 85.9919 19.975 86.1674 20.1083C86.6896 20.5049 87.2867 20.4089 87.747 19.8291C88.7827 18.5247 89.1379 16.973 89.32 15.4147H89.3194Z" fill="#47302B"></path><path d="M184.874 25.8089C185.148 25.5609 185.405 25.2916 185.698 25.0697C186.116 24.7518 186.542 24.4352 187 24.1839C187.209 24.0693 187.51 24.0566 187.753 24.0979C188.047 24.1479 188.116 24.4012 187.973 24.7471C187.426 24.3172 187.095 24.7518 186.759 25.0837C186.352 25.4856 185.979 25.9242 185.584 26.3387C185.259 26.6793 184.897 26.9553 184.402 26.9932C183.821 27.0379 183.436 26.8606 183.295 26.2874C183.154 25.7169 183.038 25.0924 183.12 24.5225C183.348 22.9449 183.683 21.3832 183.979 19.8162C184.046 19.4603 184.13 19.1071 184.224 18.6685C183.863 19.1551 183.575 19.5823 183.245 19.9722C183.005 20.2555 182.732 20.5241 182.431 20.7374C181.714 21.2446 181.033 21.0406 180.649 20.2428C180.316 19.551 180.325 18.8125 180.442 18.09C180.589 17.1829 180.826 16.2911 181.016 15.3913C181.08 15.088 181.114 14.7787 181.17 14.4735C181.228 14.1536 181.438 13.9929 181.737 14.0749C182.069 14.1662 182.405 14.2929 182.697 14.4728C182.993 14.6541 182.957 14.986 182.887 15.2886C182.586 16.585 182.283 17.88 181.98 19.1757C181.943 19.3377 181.901 19.4997 181.877 19.6636C181.862 19.7656 181.874 19.8716 181.874 19.9755C181.908 19.9975 181.943 20.0195 181.976 20.0415C182.154 19.8649 182.356 19.7069 182.505 19.5083C183.143 18.6625 183.782 17.816 184.384 16.9442C184.597 16.6343 184.736 16.2604 184.858 15.8985C184.984 15.5226 185.042 15.1233 185.141 14.7374C185.273 14.2182 185.622 14.0116 186.13 14.1496C186.256 14.1835 186.379 14.2382 186.495 14.2982C187.294 14.7094 187.309 14.7774 187.092 15.6532C186.34 18.6872 185.596 21.7238 184.862 24.7618C184.783 25.0844 184.783 25.4263 184.747 25.7595C184.79 25.7762 184.833 25.7929 184.875 25.8095L184.874 25.8089Z" fill="#47302B"></path><path d="M190.117 13.4637C189.083 13.4597 188.232 12.5906 188.244 11.5488C188.256 10.5031 189.118 9.64926 190.15 9.66326C191.175 9.67659 191.999 10.5231 192 11.5648C192.001 12.6199 191.161 13.4677 190.117 13.4637ZM190.116 13.0758C190.954 13.0805 191.632 12.406 191.633 11.5668C191.634 10.7357 190.945 10.0418 190.121 10.0432C189.305 10.0445 188.639 10.715 188.628 11.5448C188.618 12.398 189.272 13.0711 190.116 13.0758Z" fill="#47302B"></path><path d="M109.883 12.6959C109.868 12.7632 109.866 12.9225 109.796 13.0371C109.503 13.5144 109.195 13.9836 108.875 14.4428C108.818 14.5248 108.673 14.5768 108.569 14.5761C108.525 14.5761 108.433 14.4008 108.444 14.3155C108.521 13.681 108.602 13.0465 108.719 12.4186C108.766 12.1647 108.871 11.8907 109.237 11.9547C109.65 12.0267 109.878 12.2573 109.883 12.6959Z" fill="#47302B"></path><path d="M189.332 10.5271C189.616 10.5271 189.875 10.5211 190.135 10.5291C190.391 10.5371 190.66 10.5651 190.77 10.845C190.881 11.1296 190.811 11.3882 190.562 11.5542C190.73 11.8621 190.89 12.1567 191.064 12.4753C190.702 12.5806 190.484 12.5199 190.365 12.1713C190.288 11.9441 190.173 11.7088 189.825 11.7974C189.814 12.0247 189.802 12.2513 189.79 12.4979H189.331V10.5277L189.332 10.5271ZM189.835 10.883V11.4508C190.011 11.3902 190.163 11.3689 190.27 11.2869C190.317 11.2509 190.307 11.0303 190.257 10.999C190.145 10.9276 189.992 10.921 189.835 10.8836V10.883Z" fill="#47302B"></path></g><defs><clipPath id="clip0_1029_896"><rect width="132" height="23" fill="white" transform="translate(60 4)"></rect></clipPath></defs></svg>